# xmcd CD database file
#
# Track frame offsets:
#	150
#	22549
#	46980
#	73301
#	89149
#	102563
#	130038
#	147954
#	178931
#	213077
#	231708
#
# Disc length: 3276 seconds
#
# Revision: 0
# Processed by: cddbd v1.5.2PL0 Copyright (c) Steve Scherf et al.
# Submitted via: CDex 1.70beta2
#
DISCID=a30cca0b
DTITLE=Shoehorn - Trio Calzador
DYEAR=2003
DGENRE=Jazz
TTITLE0=Fuigo Azul
TTITLE1=Descarga Calzador
TTITLE2=Manha de Carnaval
TTITLE3=le Swing Shoehorn
TTITLE4=Three Metals
TTITLE5=Blue Bossa
TTITLE6=Yosaku
TTITLE7=Eastrum
TTITLE8=Malaguena
TTITLE9=Soweto Blue
TTITLE10=Liberty
EXTD=YEAR: 2003
EXTT0=
EXTT1=
EXTT2=
EXTT3=
EXTT4=
EXTT5=
EXTT6=
EXTT7=
EXTT8=
EXTT9=
EXTT10=
PLAYORDER=
